<svg viewBox="0 0 1200 800" xmlns="http://www.w3.org/2000/svg">
  <rect width="1200" height="800" fill="#0a0a0a"/>
  <defs>
    <radialGradient id="hubGlow" cx="50%" cy="50%" r="50%">
      <stop offset="0%" stop-color="#c8ff00" stop-opacity="0.08"/>
      <stop offset="40%" stop-color="#c8ff00" stop-opacity="0.03"/>
      <stop offset="100%" stop-color="transparent"/>
    </radialGradient>
    <radialGradient id="nodeGlow" cx="50%" cy="50%" r="50%">
      <stop offset="0%" stop-color="#c8ff00" stop-opacity="0.4"/>
      <stop offset="100%" stop-color="#c8ff00" stop-opacity="0"/>
    </radialGradient>
  </defs>
  <rect width="1200" height="800" fill="url(#hubGlow)"/>
  <g stroke="#c8ff00" stroke-opacity="0.12" stroke-width="1">
    <line x1="600" y1="400" x2="200" y2="150"/><line x1="600" y1="400" x2="400" y2="100"/>
    <line x1="600" y1="400" x2="800" y2="100"/><line x1="600" y1="400" x2="1000" y2="150"/>
    <line x1="600" y1="400" x2="150" y2="350"/><line x1="600" y1="400" x2="1050" y2="350"/>
    <line x1="600" y1="400" x2="200" y2="600"/><line x1="600" y1="400" x2="400" y2="700"/>
    <line x1="600" y1="400" x2="800" y2="700"/><line x1="600" y1="400" x2="1000" y2="600"/>
    <line x1="600" y1="400" x2="300" y2="250"/><line x1="600" y1="400" x2="900" y2="250"/>
    <line x1="600" y1="400" x2="300" y2="550"/><line x1="600" y1="400" x2="900" y2="550"/>
    <line x1="600" y1="400" x2="500" y2="150"/><line x1="600" y1="400" x2="700" y2="150"/>
    <line x1="600" y1="400" x2="500" y2="650"/><line x1="600" y1="400" x2="700" y2="650"/>
  </g>
  <g stroke="#c8ff00" stroke-opacity="0.05" stroke-width="0.5">
    <line x1="200" y1="150" x2="400" y2="100"/><line x1="400" y1="100" x2="500" y2="150"/>
    <line x1="500" y1="150" x2="700" y2="150"/><line x1="700" y1="150" x2="800" y2="100"/>
    <line x1="800" y1="100" x2="1000" y2="150"/><line x1="200" y1="600" x2="400" y2="700"/>
    <line x1="400" y1="700" x2="500" y2="650"/><line x1="500" y1="650" x2="700" y2="650"/>
    <line x1="700" y1="650" x2="800" y2="700"/><line x1="800" y1="700" x2="1000" y2="600"/>
    <line x1="300" y1="250" x2="150" y2="350"/><line x1="900" y1="250" x2="1050" y2="350"/>
  </g>
  <g fill="#c8ff00">
    <circle cx="200" cy="150" r="4" opacity="0.6"/><circle cx="400" cy="100" r="3" opacity="0.4"/>
    <circle cx="500" cy="150" r="4" opacity="0.5"/><circle cx="700" cy="150" r="3" opacity="0.4"/>
    <circle cx="800" cy="100" r="4" opacity="0.6"/><circle cx="1000" cy="150" r="3" opacity="0.4"/>
    <circle cx="150" cy="350" r="4" opacity="0.5"/><circle cx="1050" cy="350" r="3" opacity="0.4"/>
    <circle cx="300" cy="250" r="3" opacity="0.3"/><circle cx="900" cy="250" r="4" opacity="0.5"/>
    <circle cx="200" cy="600" r="3" opacity="0.4"/><circle cx="400" cy="700" r="4" opacity="0.5"/>
    <circle cx="500" cy="650" r="3" opacity="0.3"/><circle cx="700" cy="650" r="4" opacity="0.6"/>
    <circle cx="800" cy="700" r="3" opacity="0.4"/><circle cx="1000" cy="600" r="4" opacity="0.5"/>
    <circle cx="300" cy="550" r="3" opacity="0.3"/><circle cx="900" cy="550" r="4" opacity="0.5"/>
  </g>
  <circle cx="200" cy="150" r="12" fill="url(#nodeGlow)"/>
  <circle cx="800" cy="100" r="12" fill="url(#nodeGlow)"/>
  <circle cx="700" cy="650" r="12" fill="url(#nodeGlow)"/>
  <circle cx="600" cy="400" r="24" fill="none" stroke="#c8ff00" stroke-width="2" opacity="0.8"/>
  <circle cx="600" cy="400" r="32" fill="none" stroke="#c8ff00" stroke-width="0.5" opacity="0.3"/>
  <circle cx="600" cy="400" r="8" fill="#c8ff00" opacity="0.9"/>
  <circle cx="600" cy="400" r="50" fill="url(#nodeGlow)"/>
  <text x="600" y="406" text-anchor="middle" font-family="Instrument Serif, Georgia, serif" font-size="22" fill="#0a0a0a" font-weight="400">R</text>
</svg>